# xmcd
#
# Track frame offsets:
#	150
#	16530
#	31720
#	77390
#	107542
#	130642
#
# Disc length: 4770 seconds
#
# Revision: 0
# Processed by: cddbd v1.5.2PL0 Copyright (c) Steve Scherf et al.
# Submitted via: audiograbber 1.83.01
#
DISCID=2b12a006
DTITLE=Blank and Jones - Watching The Waves (Collectors Edition)
DYEAR=2002
DGENRE=Trance
TTITLE0=Watching The Waves (Short Cut)
TTITLE1=Suburban Hell (Short Cut)
TTITLE2=Watching The Waves (van Bellen Remix)
TTITLE3=Suburban Hell (Hardfloor Remix)
TTITLE4=DJs Fans and Freaks (D.F.F.) (Moonlight Remix)
TTITLE5=Daten-CD
EXTD=
EXTT0=
EXTT1=
EXTT2=
EXTT3=
EXTT4=
EXTT5=
PLAYORDER=
